<?xml version="1.0" encoding="UTF-8" standalone="no" ?>
<!DOCTYPE svg PUBLIC "-//W3C//DTD SVG 1.1//EN" "http://www.w3.org/Graphics/SVG/1.1/DTD/svg11.dtd">
<svg xmlns="http://www.w3.org/2000/svg" xmlns:xlink="http://www.w3.org/1999/xlink" version="1.1" width="640" height="640" viewBox="0 0 640 640" xml:space="preserve">
<desc>Created with Fabric.js 4.6.0</desc>
<defs>
</defs>
<g transform="matrix(0.88 0 0 8 114.75 254.41)" id="D5tVCNyz91H-nuWoAaQMH"  >
<path style="stroke: rgb(190,250,34); stroke-width: 0; stroke-dasharray: none; stroke-linecap: butt; stroke-dashoffset: 0; stroke-linejoin: miter; stroke-miterlimit: 4; fill: rgb(0,0,0); fill-rule: nonzero; opacity: 1;" vector-effect="non-scaling-stroke"  transform=" translate(0, 0)" d="M -31.02493 -30.83855 C -31.02493 -30.94149 -30.2638 -31.02493 -29.3249 -31.02493 L -6.481770000000001 -31.02493 L -6.481770000000001 -31.02493 C 14.232599999999998 -31.02493 31.024919999999998 -29.18391 31.024919999999998 -26.9129 L 31.024919999999998 30.104419999999998 L 31.024919999999998 30.104419999999998 C 31.024919999999998 30.612799999999996 27.265829999999998 31.024929999999998 22.62876 31.024929999999998 L -6.254339999999999 31.024929999999998 L -6.254339999999999 31.024929999999998 C -19.93477 31.024929999999998 -31.02494 29.80906 -31.02494 28.309219999999996 z" stroke-linecap="round" />
</g>
<g transform="matrix(6.08 0 0 1.16 270.22 33.1)" id="eOZ9epFwL41zJ0SE4eUVH"  >
<path style="stroke: rgb(197,87,228); stroke-width: 0; stroke-dasharray: none; stroke-linecap: butt; stroke-dashoffset: 0; stroke-linejoin: miter; stroke-miterlimit: 4; fill: rgb(0,0,0); fill-rule: nonzero; opacity: 1;" vector-effect="non-scaling-stroke"  transform=" translate(0, 0)" d="M -19.9446 -19.9446 L 19.9446 -19.9446 L 19.9446 19.9446 L -15.111629999999998 19.9446 L -15.111629999999998 19.9446 C -17.7808 19.9446 -19.944599999999998 8.58468 -19.944599999999998 -5.42848 z" stroke-linecap="round" />
</g>
<g transform="matrix(1.86 0 0 1.86 382.65 69.37)" id="9Dh49uBvI-VzuKdWDVpO6"  >
<path style="stroke: rgb(30,180,45); stroke-width: 0; stroke-dasharray: none; stroke-linecap: butt; stroke-dashoffset: 0; stroke-linejoin: miter; stroke-miterlimit: 4; fill: rgb(0,0,0); fill-rule: nonzero; opacity: 1;" vector-effect="non-scaling-stroke"  transform=" translate(0, 0)" d="M 0 -31.91136 C 17.61507 -31.91136 31.91136 -17.615069999999996 31.91136 0 C 31.91136 17.61507 17.615069999999996 31.91136 0 31.91136 C -17.61507 31.91136 -31.91136 17.615069999999996 -31.91136 0 C -31.91136 -17.61507 -17.615069999999996 -31.91136 0 -31.91136 z" stroke-linecap="round" />
</g>
<g transform="matrix(3.37 0 0 0.39 352.15 255.34)" id="qCyAlDvzraj6OhqJveyU4"  >
<path style="stroke: rgb(183,106,20); stroke-width: 0; stroke-dasharray: none; stroke-linecap: butt; stroke-dashoffset: 0; stroke-linejoin: miter; stroke-miterlimit: 4; fill: rgb(244,93,72); fill-rule: nonzero; opacity: 1;" vector-effect="non-scaling-stroke"  transform=" translate(0, 0)" d="M -59.39058 19.69995 C -59.39058 -23.980539999999998 -55.31041 -59.39058 -50.27727 -59.39058 L 51.29563 -59.39058 L 51.29563 -59.39058 C 55.76635 -59.39058 59.39058 -27.9374 59.39058 10.86206 L 59.39058 59.39058 L -59.39058 59.39058 z" stroke-linecap="round" />
</g>
<g transform="matrix(1.86 0 0 1.86 394.19 7.22)" id="j2pPvSW_ifhPRZk42AC2t"  >
<path style="stroke: rgb(0,0,0); stroke-width: 1; stroke-dasharray: none; stroke-linecap: butt; stroke-dashoffset: 0; stroke-linejoin: miter; stroke-miterlimit: 4; fill: rgb(255,255,255); fill-opacity: 0; fill-rule: nonzero; opacity: 1;" vector-effect="non-scaling-stroke"  transform=" translate(0, 0)" d="M 0 0" stroke-linecap="round" />
</g>
<g transform="matrix(1.86 0 0 1.86 393.26 8.15)" id="4zA88NglSa_SlNQ1xZzKQ"  >
<path style="stroke: rgb(0,0,0); stroke-width: 1; stroke-dasharray: none; stroke-linecap: butt; stroke-dashoffset: 0; stroke-linejoin: miter; stroke-miterlimit: 4; fill: rgb(255,255,255); fill-opacity: 0; fill-rule: nonzero; opacity: 1;" vector-effect="non-scaling-stroke"  transform=" translate(0, 0)" d="M 0 0" stroke-linecap="round" />
</g>
<g transform="matrix(1.86 0 0 1.86 392.33 9.08)" id="lKmegBKmEhEwA9iCgGnup"  >
<path style="stroke: rgb(0,0,0); stroke-width: 1; stroke-dasharray: none; stroke-linecap: butt; stroke-dashoffset: 0; stroke-linejoin: miter; stroke-miterlimit: 4; fill: rgb(255,255,255); fill-opacity: 0; fill-rule: nonzero; opacity: 1;" vector-effect="non-scaling-stroke"  transform=" translate(0, 0)" d="M 0 0" stroke-linecap="round" />
</g>
<g transform="matrix(1.86 0 0 1.86 392.33 7.22)" id="7P5qoovBEHJuxhXhuUUH9"  >
<path style="stroke: rgb(0,0,0); stroke-width: 1; stroke-dasharray: none; stroke-linecap: butt; stroke-dashoffset: 0; stroke-linejoin: miter; stroke-miterlimit: 4; fill: rgb(255,255,255); fill-opacity: 0; fill-rule: nonzero; opacity: 1;" vector-effect="non-scaling-stroke"  transform=" translate(0, 0)" d="M 0 0" stroke-linecap="round" />
</g>
<g transform="matrix(1.86 0 0 1.86 394.19 9.08)" id="lyo8CISoUBWOiBGromY7h"  >
<path style="stroke: rgb(0,0,0); stroke-width: 1; stroke-dasharray: none; stroke-linecap: butt; stroke-dashoffset: 0; stroke-linejoin: miter; stroke-miterlimit: 4; fill: rgb(255,255,255); fill-opacity: 0; fill-rule: nonzero; opacity: 1;" vector-effect="non-scaling-stroke"  transform=" translate(0, 0)" d="M 0 0" stroke-linecap="round" />
</g>
<g transform="matrix(1.86 0 0 1.86 392.33 9.08)" id="u6hvFv7oMZ4IgQVyJEE8v"  >
<path style="stroke: rgb(0,0,0); stroke-width: 1; stroke-dasharray: none; stroke-linecap: butt; stroke-dashoffset: 0; stroke-linejoin: miter; stroke-miterlimit: 4; fill: rgb(255,255,255); fill-opacity: 0; fill-rule: nonzero; opacity: 1;" vector-effect="non-scaling-stroke"  transform=" translate(0, 0)" d="M 0 0 z" stroke-linecap="round" />
</g>
<g transform="matrix(0.57 0 0 3.63 352.15 463.07)" id="Py4Net540R4twRvA364rT"  >
<path style="stroke: rgb(61,183,85); stroke-width: 0; stroke-dasharray: none; stroke-linecap: butt; stroke-dashoffset: 0; stroke-linejoin: miter; stroke-miterlimit: 4; fill: rgb(244,93,72); fill-rule: nonzero; opacity: 1;" vector-effect="non-scaling-stroke"  transform=" translate(0, 0)" d="M -46.98061 -41.67974 C -46.98061 -44.607330000000005 -31.76259 -46.98061 -12.990200000000002 -46.98061 L 10.564689999999999 -46.98061 L 10.564689999999999 -46.98061 C 30.67665 -46.98061 46.98062 -44.437979999999996 46.98062 -41.30148 L 46.98062 41.30148 L 46.98062 41.30148 C 46.98062 44.437979999999996 30.676660000000002 46.98061 10.564700000000002 46.98061 L -10.56467 46.98061 L -10.56467 46.98061 C -30.67663 46.98061 -46.9806 44.437979999999996 -46.9806 41.30148 z" stroke-linecap="round" />
</g>
<g transform="matrix(1.86 0 0 2.41 370.54 179.79)" id="cjzonK3M05ObI6FapgWB7"  >
<path style="stroke: rgb(0,0,0); stroke-width: 1; stroke-dasharray: none; stroke-linecap: butt; stroke-dashoffset: 0; stroke-linejoin: miter; stroke-miterlimit: 4; fill: rgb(0,0,0); fill-rule: nonzero; opacity: 1;" vector-effect="non-scaling-stroke"  transform=" translate(0, 0)" d="M -15.25863 17.72853 C -16.08522 17.72853 -16.84136 17.36945 -17.21367 16.8001 C -17.58598 16.23076 -17.51101 15.54819 -17.01982 15.03531 L -11.109839999999998 8.864260000000002 L -3.5245599999999984 -1.7728599999999979 L -3.5245599999999984 -12.896979999999997 L -3.5245599999999984 -12.896979999999997 C -3.5245599999999984 -15.565369999999998 -0.7206399999999982 -17.728539999999995 2.738170000000002 -17.728539999999995 L 10.460410000000003 -17.728539999999995 L 10.460410000000003 -17.728539999999995 C 14.056360000000003 -17.728539999999995 17.029560000000004 -15.566889999999995 17.242630000000002 -12.797569999999995 C 17.522150000000003 -9.164529999999996 17.618250000000003 -6.368109999999995 16.86325 -1.7728599999999943 C 15.770950000000001 4.875340000000006 12.494040000000002 8.864260000000005 12.494040000000002 8.864260000000005 L 9.981140000000002 12.186410000000006 L 9.981140000000002 12.186410000000006 C 7.385210000000002 15.618330000000006 2.6221400000000017 17.728520000000007 -2.5283999999999978 17.728520000000007 z" stroke-linecap="round" />
</g>
</svg>